<?xml version="1.0" encoding="UTF-8" standalone="no"?>
<svg
   fill="#000000"
   width="349.91284"
   height="346.8288"
   version="1.1"
   viewBox="0 0 92.582282 91.764954"
   id="svg101"
   xmlns="http://www.w3.org/2000/svg"
   xmlns:svg="http://www.w3.org/2000/svg"
   xmlns:rdf="http://www.w3.org/1999/02/22-rdf-syntax-ns#"
   xmlns:cc="http://creativecommons.org/ns#"
   xmlns:dc="http://purl.org/dc/elements/1.1/">
  <defs
     id="defs1">
    <clipPath
       id="a">
      <path
         d="M 0,226.772 H 226.772 V 0 H 0 Z"
         id="path1" />
    </clipPath>
  </defs>
  <metadata
     id="metadata1">
    <rdf:RDF>
      <cc:Work
         rdf:about="">
        <dc:format>image/svg+xml</dc:format>
        <dc:type
           rdf:resource="http://purl.org/dc/dcmitype/StillImage" />
      </cc:Work>
    </rdf:RDF>
  </metadata>
  <g
     id="g101"
     transform="translate(-0.70116566,-0.73310949)">
    <g
       transform="matrix(0.2187,0,0,0.2187,31.381,14.706)"
       id="g100">
      <g
         transform="translate(-3.6287,-3.1614)"
         id="g43">
        <g
           transform="matrix(2.0676,0,0,-2.0676,-1.8022,332.09)"
           id="g37">
          <path
             d="M 0,0 C -6.044,2.381 -11.864,5.458 -17.294,9.139 -6.781,1.731 5.23,-3.531 17.825,-6.194 30.417,-8.864 43.565,-8.964 56.264,-6.479 46.966,-8.051 37.248,-8.328 27.673,-7.261 18.1,-6.178 8.679,-3.71 0,0 m 126.75,111.64 c -3.722,11.694 -9.722,22.658 -17.61,32.122 -3.942,4.733 -8.349,9.094 -13.152,12.992 -4.802,3.898 -10.018,7.307 -15.526,10.185 -11.017,5.758 -23.265,9.298 -35.844,10.229 -12.58,0.94 -25.452,-0.657 -37.537,-4.93 0.02,-0.055 -0.025,-0.137 -0.174,-0.256 -0.384,-0.287 -1.112,-0.673 -1.979,-1.066 -0.434,-0.196 -0.903,-0.394 -1.382,-0.582 -0.478,-0.192 -0.95,-0.412 -1.416,-0.588 -5.325,-2.065 -10.435,-4.624 -15.286,-7.655 -8.861,-5.865 -16.545,-13.393 -22.717,-21.913 1.199,1.732 2.575,3.33 3.878,4.977 l 2.092,2.356 c 0.682,0.798 1.42,1.543 2.158,2.287 2.899,3.029 6.072,5.771 9.369,8.31 0.989,0.757 1.908,1.39 2.577,1.774 0.691,0.356 1.117,0.484 1.095,0.281 -10e-4,-0.198 -0.456,-0.63 -1.112,-1.277 -0.664,-0.637 -1.579,-1.42 -2.6,-2.2 -4.359,-3.482 -8.503,-7.505 -12.245,-11.929 -3.745,-4.42 -7.086,-9.238 -9.927,-14.252 -2.845,-5.013 -5.187,-10.219 -7.045,-15.396 -1.863,-5.177 -3.24,-10.321 -4.282,-15.233 -1.67,-12.762 -0.563,-25.75 3.134,-37.748 3.683,-12.01 9.92,-23.041 17.993,-32.196 C -22.71,20.775 -12.851,13.481 -2.169,8.525 8.513,3.551 19.996,0.936 31.304,0.645 32.197,0.647 33.249,0.544 33.7,0.403 34.303,0.272 34.118,0.142 33.319,0.132 21.532,-0.07 9.133,2.313 -2.572,7.588 c -5.846,2.634 -11.53,5.949 -16.822,9.971 -5.286,4.027 -10.204,8.716 -14.586,13.98 l -0.831,0.981 -0.783,1.021 -1.57,2.05 c -0.533,0.679 -0.99,1.411 -1.491,2.116 -0.487,0.714 -0.992,1.419 -1.466,2.146 -1.848,2.932 -3.634,5.941 -5.155,9.106 -3.09,6.302 -5.524,13.031 -7.059,20.039 -1.533,7.005 -2.243,14.261 -2.094,21.556 l 0.015,1.368 0.083,1.368 0.174,2.736 c 0.035,0.916 0.191,1.821 0.281,2.732 l 0.323,2.733 c 0.579,3.623 1.255,7.249 2.263,10.801 0.241,0.868 0.481,1.735 0.721,2.602 l 0.852,2.555 c 0.531,1.715 1.221,3.368 1.868,5.034 -2.16,-4.693 -3.887,-9.646 -5.194,-14.779 -1.311,-5.133 -2.2,-10.452 -2.625,-15.907 0.172,-1.136 0.227,-2.955 0.247,-5.085 0.112,-5.133 0.687,-10.237 1.612,-15.262 0.019,0.225 0.063,0.355 0.128,0.379 0.28,0.022 0.766,-1.812 1.233,-4.033 2.689,-12.526 8.05,-24.392 15.574,-34.813 0.187,-0.249 0.352,-0.487 0.514,-0.733 2.434,-3.132 4.99,-6.173 7.804,-8.963 1.362,-1.439 2.843,-2.757 4.294,-4.1 0.716,-0.684 1.507,-1.284 2.255,-1.93 0.766,-0.625 1.495,-1.294 2.298,-1.874 l 2.36,-1.794 c 0.778,-0.61 1.62,-1.132 2.425,-1.703 1.605,-1.153 3.306,-2.159 4.981,-3.202 3.409,-1.986 6.895,-3.846 10.529,-5.372 14.446,-6.323 30.498,-8.675 46.101,-7.072 0.978,0.065 1.947,0.22 2.918,0.355 0.969,0.141 1.941,0.263 2.908,0.417 l 2.885,0.554 1.442,0.278 1.427,0.349 2.851,0.695 2.815,0.833 1.406,0.417 c 0.467,0.145 0.924,0.321 1.387,0.479 l 2.766,0.973 c 3.635,1.439 7.244,2.961 10.671,4.849 1.751,0.87 3.4,1.928 5.092,2.901 0.833,0.511 1.638,1.067 2.458,1.597 0.818,0.533 1.639,1.062 2.418,1.654 l 2.371,1.722 c 0.776,0.59 1.526,1.217 2.292,1.824 l 1.144,0.916 c 0.379,0.305 0.735,0.642 1.103,0.962 l 2.196,1.939 c 0.712,0.667 1.404,1.359 2.107,2.035 l 1.051,1.02 c 0.343,0.347 0.669,0.711 1.004,1.065 l 2.002,2.137 1.901,2.229 0.949,1.113 0.897,1.158 1.79,2.316 1.676,2.401 0.838,1.199 0.779,1.238 1.559,2.477 1.439,2.549 0.717,1.274 0.657,1.308 1.312,2.615 c 0.277,0.824 0.843,2.03 1.191,2.563 0.395,0.626 0.482,0.461 0.204,-0.359 0.103,-0.013 0.335,0.139 0.23,-0.13 C 117.333,39.35 111.149,29.456 103.07,20.896 94.992,12.355 84.968,5.122 73.068,0.182 72.037,-0.225 71.028,-0.692 69.979,-1.049 L 66.845,-2.156 C 65.801,-2.528 64.727,-2.805 63.67,-3.134 l -1.592,-0.475 c -0.532,-0.153 -1.073,-0.269 -1.61,-0.405 l -3.225,-0.784 -3.258,-0.625 c -1.082,-0.231 -2.177,-0.372 -3.272,-0.523 -1.095,-0.14 -2.184,-0.337 -3.284,-0.43 1.142,0.051 2.27,0.203 3.397,0.295 0.565,0.052 1.126,0.105 1.686,0.156 0.56,0.054 1.112,0.151 1.666,0.223 1.107,0.154 2.208,0.307 3.299,0.458 1.085,0.2 2.16,0.399 3.226,0.597 0.532,0.102 1.07,0.181 1.593,0.3 0.524,0.122 1.046,0.242 1.565,0.361 1.037,0.245 2.076,0.454 3.088,0.715 2.008,0.573 4.013,1.035 5.904,1.679 10.838,4.311 20.866,10.724 29.411,18.572 8.551,7.858 15.608,17.128 21.003,27.04 l -0.572,-0.753 c 0.453,0.896 0.932,1.74 1.328,2.354 0.396,0.614 0.666,1.022 0.792,0.994 0.148,0.046 0.098,-0.325 -0.096,-0.943 -0.22,-0.606 -0.594,-1.455 -1.054,-2.377 -2.298,-4.803 -5.009,-9.435 -8.101,-13.827 -3.116,-4.375 -6.621,-8.497 -10.453,-12.318 -3.833,-3.82 -8,-7.333 -12.448,-10.484 C 88.196,3.541 83.449,0.789 78.49,-1.553 73.53,-3.89 68.362,-5.835 63.042,-7.299 57.718,-8.741 52.259,-9.734 46.745,-10.273 l -2.071,-0.182 c -0.691,-0.063 -1.381,-0.126 -2.074,-0.139 l -4.16,-0.151 -4.167,0.06 c -0.695,-0.003 -1.388,0.04 -2.082,0.09 l -2.082,0.137 c -5.549,0.417 -11.077,1.294 -16.504,2.639 -10.842,2.738 -21.229,7.385 -30.581,13.636 -9.343,6.274 -17.588,14.203 -24.328,23.279 -6.769,9.064 -11.867,19.383 -15.158,30.25 -3.333,10.873 -4.601,22.349 -4.09,33.723 0.853,18.115 6.934,35.799 17.131,50.588 10.155,14.833 24.486,26.71 40.946,34.019 2.423,1.148 4.762,1.849 6.44,2.322 1.701,0.418 2.795,0.475 2.835,0.194 0.056,-0.603 -3.935,-2.364 -8.719,-4.587 -1.998,-0.849 -3.893,-1.905 -5.829,-2.875 -0.947,-0.525 -1.879,-1.076 -2.818,-1.612 l -1.406,-0.81 -1.365,-0.877 c -0.908,-0.587 -1.823,-1.162 -2.722,-1.761 l -2.638,-1.882 c -0.891,-0.612 -1.732,-1.289 -2.578,-1.959 -0.84,-0.678 -1.71,-1.319 -2.523,-2.028 -1.625,-1.419 -3.274,-2.81 -4.8,-4.335 -1.586,-1.463 -3.037,-3.058 -4.52,-4.621 -0.736,-0.786 -1.413,-1.626 -2.122,-2.436 -0.704,-0.815 -1.409,-1.629 -2.055,-2.492 l -1.982,-2.551 -1.863,-2.638 -0.925,-1.323 -0.864,-1.365 c -0.572,-0.912 -1.16,-1.814 -1.717,-2.735 -1.047,-1.882 -2.172,-3.721 -3.1,-5.667 -1.996,-3.819 -3.619,-7.822 -5.076,-11.877 l -1.014,-3.071 c -0.356,-1.019 -0.594,-2.074 -0.896,-3.109 -0.618,-2.069 -1.042,-4.187 -1.518,-6.293 -0.811,-4.241 -1.47,-8.524 -1.704,-12.85 -0.052,-0.952 -0.159,-1.9 -0.165,-2.853 l -0.051,-2.854 -0.024,-1.425 0.041,-1.425 0.093,-2.847 c 0.009,-0.95 0.13,-1.893 0.197,-2.839 l 0.238,-2.833 0.377,-2.815 c 0.14,-0.937 0.223,-1.881 0.418,-2.807 1.278,-7.457 3.417,-14.735 6.347,-21.658 -4.478,10.88 -6.713,22.629 -6.772,34.239 -0.238,4.445 -0.015,8.918 0.389,13.383 0.134,1.113 0.268,2.228 0.403,3.344 0.116,1.119 0.362,2.219 0.538,3.332 0.336,2.229 0.905,4.417 1.394,6.626 1.163,4.373 2.545,8.711 4.317,12.919 0.414,1.064 0.931,2.085 1.393,3.131 l 0.714,1.56 c 0.247,0.516 0.522,1.019 0.782,1.529 0.535,1.014 1.043,2.043 1.601,3.045 0.58,0.991 1.161,1.983 1.741,2.977 5.722,9.376 12.926,17.615 21.221,24.367 4.155,3.369 8.564,6.381 13.177,9.016 4.614,2.631 9.425,4.91 14.417,6.716 9.965,3.637 20.528,5.738 31.295,5.99 5.379,0.137 10.813,-0.072 16.234,-0.822 5.421,-0.738 10.835,-1.909 16.186,-3.541 10.388,-3.132 19.55,-7.798 27.718,-13.248 4.05,-2.783 7.84,-5.785 11.397,-8.98 3.547,-3.209 6.786,-6.67 9.832,-10.284 3.031,-3.629 5.736,-7.503 8.249,-11.534 2.485,-4.05 4.633,-8.327 6.56,-12.778 1.883,-4.47 3.416,-9.153 4.667,-14.021 1.203,-4.879 2.014,-9.957 2.476,-15.21 0.127,-1.843 0.096,-3.906 -0.083,-4.64 -0.091,-0.368 -0.195,-0.359 -0.286,-0.041 -0.096,0.33 -0.19,0.993 -0.252,1.903 -1.357,20.253 -8.819,38.809 -20.675,53.911 -2.937,3.803 -6.216,7.35 -9.724,10.683 -1.726,1.697 -3.599,3.251 -5.445,4.836 -0.958,0.752 -1.92,1.505 -2.884,2.261 -0.475,0.385 -0.972,0.743 -1.476,1.095 l -1.501,1.068 c -4.034,2.809 -8.274,5.418 -12.797,7.639 -4.515,2.227 -9.254,4.158 -14.2,5.737 -10.493,3.362 -21.367,4.799 -32.116,4.67 -10.755,-0.215 -21.401,-2.117 -31.479,-5.723 -10.058,-3.647 -19.537,-8.95 -27.958,-15.747 -8.396,-6.822 -15.7,-15.146 -21.428,-24.625 -1.554,-2.563 -2.955,-5.192 -4.236,-7.872 2.254,4.332 4.793,8.475 7.638,12.349 2.868,3.858 5.993,7.466 9.323,10.803 12.556,13.457 29.052,22.863 46.778,26.888 17.718,4.047 36.647,2.905 53.941,-3.534 6.703,-2.509 13.077,-5.708 19.022,-9.537 5.939,-3.838 11.396,-8.364 16.327,-13.405 l 0.93,-0.94 c 0.308,-0.317 0.593,-0.654 0.89,-0.979 l 1.768,-1.969 c 0.607,-0.643 1.127,-1.357 1.697,-2.032 0.553,-0.687 1.122,-1.364 1.666,-2.06 2.117,-2.827 4.172,-5.717 5.966,-8.778 3.631,-6.089 6.633,-12.614 8.716,-19.492 0.266,-0.867 0.508,-1.729 0.718,-2.545 0.1,-0.408 0.196,-0.805 0.289,-1.184 0.08,-0.383 0.132,-0.753 0.187,-1.098 0.205,-1.387 0.267,-2.421 0.139,-2.792 -0.128,-0.372 -0.427,0.009 -0.804,0.912 -0.392,0.9 -0.785,2.34 -1.347,4.04"
             fill="#9f9d33"
             id="path36" />
        </g>
        <g
           transform="matrix(2.0676,0,0,-2.0676,58.392,358.18)"
           id="g38">
          <path
             d="m 0,0 c -7.538,0.804 -15.123,2.509 -22.353,4.872 -7.236,2.357 -14.115,5.382 -20.397,8.72 -0.6,0.313 -0.981,0.477 -0.733,0.213 0.251,-0.275 0.926,-0.697 1.63,-1.058 6.071,-3.138 12.754,-6.028 19.774,-8.29 7.015,-2.263 14.359,-3.917 21.593,-4.733 0.877,-0.076 1.6,-0.077 1.677,0.011 C 1.338,-0.196 0.725,-0.07 0,0"
             fill="#9f9d33"
             id="path37" />
        </g>
        <g
           transform="matrix(2.0676,0,0,-2.0676,-48.12,319.44)"
           id="g39">
          <path
             d="m 0,0 c -9.74,6.678 -18.448,15.344 -25.373,25.508 -6.919,10.156 -12.073,21.816 -14.771,34.193 -2.71,12.373 -3.079,25.353 -1.011,38.073 2.054,12.723 6.668,25.118 13.469,36.189 11.016,18.046 27.312,31.929 45.941,40.233 l 1.752,0.771 c 0.581,0.262 1.167,0.514 1.767,0.733 l 3.573,1.372 c 1.201,0.428 2.42,0.809 3.63,1.214 1.205,0.422 2.438,0.753 3.669,1.091 2.447,0.731 4.951,1.246 7.444,1.811 2.518,0.436 5.029,0.945 7.577,1.211 2.538,0.369 5.099,0.513 7.661,0.711 1.282,0.057 2.568,0.076 3.854,0.115 0.643,0.01 1.286,0.047 1.929,0.036 l 1.934,-0.042 1.934,-0.043 c 0.647,-0.009 1.292,-0.027 1.937,-0.083 1.291,-0.092 2.583,-0.183 3.877,-0.274 1.293,-0.109 2.581,-0.295 3.875,-0.439 0.645,-0.082 1.295,-0.144 1.939,-0.243 l 1.932,-0.325 c 6.775,-1.113 13.42,-2.906 19.719,-5.224 6.303,-2.314 12.258,-5.148 17.758,-8.255 0.932,-0.55 1.514,-0.772 1.241,-0.462 -0.321,0.36 -1.282,1.031 -2.316,1.648 -11.574,6.579 -24.415,11.118 -37.735,13.129 -13.311,2.011 -27.053,1.565 -40.335,-1.504 -13.273,-3.06 -26.001,-8.785 -37.133,-16.785 -11.141,-7.982 -20.691,-18.227 -27.78,-29.948 -6.785,-11.135 -11.409,-23.64 -13.47,-36.512 -2.071,-12.868 -1.674,-26.038 1.133,-38.596 2.785,-12.561 8.069,-24.407 15.197,-34.661 C -18.065,14.37 -9.116,5.686 0.812,-0.938 1.35,-1.285 1.687,-1.406 1.539,-1.204 1.254,-0.909 0.518,-0.356 0,0"
             fill="#9f9d33"
             id="path38" />
        </g>
        <g
           transform="matrix(2.0676,0,0,-2.0676,28.413,-53.275)"
           id="g40">
          <path
             d="m 0,0 c -7.147,-1.77 -14.093,-4.285 -20.666,-7.542 -6.572,-3.258 -12.792,-7.207 -18.554,-11.756 -5.758,-4.555 -11.085,-9.691 -15.822,-15.381 -4.733,-5.694 -8.916,-11.901 -12.459,-18.537 -1.005,-1.769 -1.817,-3.626 -2.697,-5.448 -0.453,-0.905 -0.795,-1.857 -1.195,-2.785 -0.379,-0.935 -0.782,-1.862 -1.136,-2.806 -1.376,-3.792 -2.629,-7.634 -3.513,-11.585 -1.834,-7.88 -2.743,-16.065 -2.394,-24.432 0.073,-1.4 0.145,-2.789 0.217,-4.166 0.142,-1.373 0.283,-2.735 0.424,-4.089 l 0.107,-1.012 0.151,-1.005 c 0.104,-0.668 0.207,-1.333 0.311,-1.997 0.104,-0.664 0.207,-1.325 0.311,-1.985 0.12,-0.657 0.266,-1.308 0.397,-1.959 0.285,-1.3 0.508,-2.604 0.843,-3.879 0.331,-1.276 0.66,-2.546 0.989,-3.814 0.353,-1.26 0.768,-2.5 1.147,-3.745 0.364,-1.251 0.823,-2.47 1.269,-3.69 0.844,-2.459 1.892,-4.837 2.902,-7.234 0.554,-1.177 1.109,-2.356 1.666,-3.539 0.549,-1.185 1.202,-2.323 1.8,-3.493 2.489,-4.63 5.298,-9.178 8.541,-13.628 0.418,-0.593 0.922,-1.122 1.102,-1.216 0.082,0.031 -0.172,0.475 -0.611,1.062 -6.979,9.63 -12.277,19.966 -15.874,30.906 -1.798,5.471 -3.082,11.111 -3.93,16.862 -0.83,5.755 -1.22,11.631 -1.024,17.599 0.209,5.542 0.871,11.048 1.977,16.449 0.306,1.344 0.611,2.687 0.915,4.029 0.372,1.324 0.744,2.648 1.116,3.971 l 0.285,0.99 0.328,0.976 0.66,1.949 c 0.225,0.648 0.433,1.302 0.673,1.944 l 0.756,1.911 c 3.975,10.218 9.76,19.61 16.729,27.91 14.051,16.536 33.193,28.486 54.443,33.862 C 1.089,-0.09 1.628,0.124 1.653,0.215 1.579,0.298 0.8,0.194 0,0"
             fill="#9f9d33"
             id="path39" />
        </g>
        <g
           transform="matrix(2.0676,0,0,-2.0676,-106.62,134.13)"
           id="g41">
          <path
             d="m 0,0 c -0.752,-7.267 -0.626,-14.805 0.46,-22.222 1.165,-7.404 3.267,-14.686 6.262,-21.457 3.045,-6.746 6.884,-13.009 11.336,-18.446 4.465,-5.427 9.46,-10.067 14.614,-13.79 0.551,-0.391 0.689,-0.371 0.401,-0.02 -0.281,0.347 -0.963,0.977 -1.473,1.345 -4.983,3.761 -9.824,8.365 -14.014,13.786 -4.201,5.406 -7.894,11.518 -10.696,18.126 -2.787,6.612 -4.788,13.658 -5.844,20.82 -1.021,7.165 -1.15,14.428 -0.484,21.438 0.027,0.338 0.046,0.665 0.056,0.967 0.026,0.302 0.044,0.578 0.05,0.819 C 0.683,1.847 0.656,2.181 0.586,2.265 0.446,2.341 0.14,1.421 0,0"
             fill="#9f9d33"
             id="path40" />
        </g>
        <g
           transform="matrix(2.0676,0,0,-2.0676,74.025,355.28)"
           id="g42">
          <path
             d="m 0,0 c -7.632,0.109 -15.26,1.109 -22.666,2.964 -7.399,1.886 -14.554,4.657 -21.301,8.149 -6.762,3.477 -13.06,7.774 -18.816,12.651 -5.752,4.879 -10.992,10.331 -15.512,16.297 -8.37,11.686 -14.248,25.101 -17.135,39.133 -0.362,2.019 -0.832,3.628 -1.05,3.595 -0.22,-0.029 -0.103,-1.716 0.263,-3.756 1.384,-7.151 3.526,-14.146 6.455,-20.81 -0.151,0.168 -0.252,0.215 -0.297,0.129 -10.525,23.38 -11.442,50.946 -2.509,75.117 0.525,1.328 0.808,2.377 0.672,2.416 -0.135,0.067 -0.669,-0.97 -1.194,-2.298 -4.705,-12.6 -6.736,-26.159 -6.059,-39.506 0.646,-13.361 4.026,-26.563 9.847,-38.511 0.334,-0.93 0.869,-1.939 1.424,-3.001 2.617,-4.952 5.607,-9.66 8.973,-14.055 3.381,-4.385 7.102,-8.476 11.125,-12.245 8.026,-7.566 17.36,-13.736 27.59,-18.347 7.307,-3.246 14.875,-5.732 22.603,-7.222 7.723,-1.503 15.564,-2.134 23.368,-1.888 7.808,0.22 15.582,1.428 23.129,3.512 7.545,2.09 14.885,5.051 21.738,8.981 10.872,6.144 20.212,14.528 28.106,24.295 3.338,4.088 6.392,8.505 9.03,13.034 1.348,2.249 2.484,4.583 3.594,6.865 0.497,1.168 0.99,2.323 1.476,3.465 0.248,0.567 0.465,1.143 0.661,1.724 0.201,0.577 0.401,1.15 0.599,1.718 2.128,6.294 3.423,12.446 4.097,18.407 0.666,5.965 0.737,11.742 0.3,17.374 -0.042,0.682 -0.145,0.742 -0.207,0.224 C 98.223,98.024 98.188,97.073 98.232,96.5 98.58,90.897 98.394,84.92 97.57,78.965 96.755,73.009 95.355,67.08 93.565,61.511 89.311,50.925 83.34,41.12 75.894,32.652 68.466,24.179 59.728,16.882 49.977,11.22 46.07,9.191 42.12,7.396 38.061,5.991 36.056,5.226 33.998,4.641 31.958,4.021 30.945,3.69 29.895,3.483 28.867,3.21 27.83,2.967 26.81,2.662 25.761,2.47 23.67,2.063 21.592,1.597 19.471,1.32 18.414,1.17 17.362,0.977 16.296,0.858 15.231,0.745 14.163,0.633 13.091,0.52 12.023,0.383 10.944,0.326 9.862,0.262 8.781,0.196 7.696,0.13 6.606,0.062 5.515,0.041 4.419,0.02 3.319,-0.002 2.768,-0.014 2.216,-0.025 1.664,-0.037 1.111,-0.025 0.556,-0.013 0,0"
             fill="#9f9d33"
             id="path41" />
        </g>
      </g>
      <g
         transform="matrix(1.0679,0,0,1.0679,-9.0052,46.996)"
         id="g99">
        <g
           transform="matrix(2.0676,0,0,-2.0676,-159.43,383.5)"
           id="g98">
          <g
             clip-path="url(#a)"
             id="g97">
            <path
               d="m 88.179,130.06 h 0.209 v 0.293 h -0.209 z"
               display="none"
               id="path89" />
            <path
               d="m 86.544,128.82 h 0.923 v 0.854 h -0.923 z"
               display="none"
               id="path90" />
            <g
               transform="translate(88.073,130.46)"
               display="none"
               id="g91">
              <path
                 d="m 0,0 c 0.005,-0.013 0.011,-0.025 0.015,-0.038 -0.008,0.009 -0.018,0.019 -0.026,0.028 -0.167,-0.136 -0.31,-0.3 -0.413,-0.495 l 0.221,0.109 c 0,0 0.267,0.238 0.258,0.267 -0.006,0.018 -0.033,0.082 -0.054,0.13 L 0,0"
                 id="path91" />
            </g>
          </g>
        </g>
      </g>
    </g>
  </g>
</svg>
